<?xml version="1.0" encoding="UTF-8"?>
<svg id="Layer_2" data-name="Layer 2" xmlns="http://www.w3.org/2000/svg" viewBox="0 0 433.97 387.31">
  <g id="Layer_1-2" data-name="Layer 1">
    <g id="qnGrkf">
      <g>
        <path d="M426.94,246.19c3.56-3.35,6.97,10.03,7.03,12.55.43,17.91-17.35,24.92-32.58,24.5-41.86-1.16-88.95-35.13-119.96-61-1.96.15-13.24,32.34-14.53,36.43-1.17,3.74-4.77,21.61-5.43,22.56-3.03,4.37-12.71-7.12-13.76-10.29-1.39-4.19-.69-6.14.29-10.17,3.32-13.72,11.92-33.06,17.47-46.53,10.05-24.37,22.69-47.63,31.48-72.52-.6-1.42-1.88-.12-2.7.3-8.02,4.09-22.41,14.94-28.29,21.71-2.6,3-3.76,9.35-7.48,4.43-3.08-4.07-3.49-15.09-1.76-19.68,2.68-7.11,21.93-18.88,28.92-23.08,23.1-13.89,68.71-36.81,95.54-32.94,9.25,1.34,23.34,11.62,26.55,20.45,11.31,31.15-35.67,66.16-58.27,80.31-16.38,10.26-34.1,18.13-51.5,26.48,17.58,14.26,38.96,26.49,60.01,34.97,15.07,6.07,53.51,17.55,65.43,2.49,2.61-3.3,3.12-10.57,3.54-10.97ZM289.94,204.2c21.33-8.67,42.79-20.44,61.31-34.18,14.01-10.4,32.57-26.75,40.85-42.15,11.77-21.89.15-23.29-19.39-20.39-24.38,3.61-48.49,16.14-69.29,28.72-.83,1.15,8.94,6.57,9.99,9.02.77,1.79.74,3.53.47,5.41l-23.94,53.57Z"/>
        <path d="M235.93,157.2c-7.77-.33-16.12,3.96-22.67,7.83-7.28,4.3-29.91,22.61-31.88,30.15-1.22,4.66,1.26,5.74,1.54,10.02-7.09,1.15-14.82-9.03-14.81-15.49.02-17.04,35.22-39.79,50.03-43.78,7.37-1.98,12.59-2.75,19.68.88,31.8,16.3-8.8,60.8-22.39,76.41-13.43,15.43-28.25,29.82-42.49,44.5,10.64-3.03,20.94-7.2,31.96-9.03,9.2-1.53,29.58-4.86,34.26,5.79,3.16,7.19-9.35,4.38-14.46,5.01-18.35,2.27-49.43,15.1-65.8,24.2-4.5,2.51-17.12,12.32-19.96,13.12-4.31,1.22-18.02-13.68-12.89-18.97,30.62-30.47,63.94-60.36,90.26-94.73,3.43-4.48,23.71-31.77,19.61-35.9Z"/>
        <path d="M82.93,221.2c2.15,2.08-9.45,11.42-10.99,13.5-2.37,3.18-4.47,7.46-4.01,11.5,6.57.79,13.37-3.28,18.92-6.58,22.55-13.39,71.93-61.77,67.98-89.83-2.13-15.19-28.25-10.28-38.94-8.12-23.57,4.76-86.97,35.72-97.86,57.15-1.69,3.33-.6,7.46-5.54,2.32-4.88-5.07-6.29-18.05-2.1-23.98,8.94-12.67,45.98-31.56,60.86-38.14,27.78-12.27,62.7-25.1,87.72-.36,30.06,29.71-14.83,80.03-38.57,99.51-12.68,10.41-43.13,32.35-57,14.05-10.01-13.22,5.72-30.36,19.52-31.02Z"/>
        <path d="M337.61,2.51c1.35,1.48,2.52,5.03,2.32,7.09-.32,3.39-4.14,4.67-3.63,7.61.64,3.74,9.97,21.49,12.46,25.66,1.64,2.75,6.03,11.43,9.99,9.13,1.95-1.13,13.3-21.63,13.14-24.36s-6.31-4.94-.98-10.97c5.35-6.05,13.27-.25,10.59,7.58-.91,2.65-3.31,2.75-4.05,3.94-1.71,2.75,1.92,25.98,5.14,26.91,3.74,1.07,20.61-17.61,21.06-20.56s-2.81-6.55,1.19-9.94c9.11-7.71,17.75,11.03,3.05,12.24-2.5,14.34-5.86,28.67-4.96,43.35-28.41-4.2-57.58-1.16-85.22,6.28-9.79,2.64-19.11,6.5-28.7,9.65-1.79-5.31-4.77-10.1-7.66-14.85-1.84-3.02-12.04-19.52-14.02-19.87-2.42-.42-5.1,2.39-8.42-1.68-6.27-7.68,6.18-16.61,10.92-7.92,1.16,2.13.67,4.09,1.31,5.69,1,2.48,24.49,13.56,27.65,11.57,2.34-1.48-2.23-19.63-3.4-22.83-2.31-6.31-4.24-3-7.48-6.5-6.54-7.06,5.3-16.32,10.46-8.47,2.72,4.13,0,6.46.7,9.22.55,2.16,15.39,14.5,18.19,15.89,7.46,3.73,7.83,1.31,9.4-5.95,1.03-4.73,4.55-31.44,3.06-34.02-.35-.6-4.34-2.07-5.26-4.23-3.8-8.94,7.17-16.2,13.15-9.66Z"/>
        <path d="M340.93,281.2c.31,2.11.12,1.62-1.26,2.24-2.2.98-5.97,1.72-8.52,2.47-43.98,13.01-89.23,22.21-133.43,34.57-64.25,17.96-127.57,39.5-188.54,66.52-5.48,1.91-7.98-5.44-8.79-9.75-1.86-9.93,3.13-11.54,10.87-15.22,17.1-8.15,39.51-15.24,57.71-21.29,63.4-21.07,130.18-36.95,195.94-49.06,9.38-1.73,72.49-13.31,76.02-10.47Z"/>
        <path d="M26.93,339.2c-11.5-2.66-16.07-15.22-14.74-26.24,3.74-31.02,23.17-76.63,36.89-105.11,4.24-8.8,15.39-33.05,20.61-39.39,5.42-6.59,18.21.23,20.11,7-20.88,33.79-39.62,69.1-52.13,106.97-6.03,18.26-11.33,37.36-10.73,56.77Z"/>
        <path d="M402.73,83.4c.74.67,1.76,5.33-.35,5.74-1.37.26-8.51-1.8-10.96-1.92-34.3-1.66-68.62,4.88-100.48,16.98-.66-5.14.54-5.23,4.32-7.17,15.46-7.95,48.67-14.85,66.13-15.87,5.64-.33,38.62-.22,41.34,2.24Z"/>
      </g>
    </g>
  </g>
</svg>